<svg width="24" height="24" viewBox="0 0 24 24" fill="none" xmlns="http://www.w3.org/2000/svg">
<path d="M0.019104 3.99367V7.9873H4.00924H7.99938V3.99367V4.3869e-05H4.00924H0.019104V3.99367Z" fill="#C24AF9"/>
<path d="M15.9987 2.05796C15.9987 4.21911 15.993 4.41019 15.9128 4.80573C15.7906 5.41338 15.4871 6.04968 15.0842 6.54268C14.9372 6.72229 14.5936 7.05287 14.4103 7.19044C13.975 7.5172 13.4385 7.76943 12.9231 7.89172C12.6062 7.96624 12.3847 7.98726 11.7699 8.00637C10.9376 8.03121 10.3705 8.09045 9.68706 8.22611C8.61984 8.43822 7.64426 8.77261 6.66486 9.25987C5.46591 9.85605 4.48461 10.565 3.53194 11.5204C2.1478 12.9115 1.20086 14.4478 0.599475 16.286C0.261554 17.3236 0.0744571 18.3382 0.0190916 19.4618C0.00954578 19.672 0 20.7783 0 21.921V24H3.99968H7.99745L8.00509 21.8064C8.01082 19.3968 8.007 19.4847 8.133 19.0013C8.5072 17.551 9.66797 16.4293 11.1304 16.1006C11.4091 16.0395 11.6497 16.0185 12.3522 15.9936C13.3355 15.9592 14.0609 15.8599 14.9773 15.6287C15.342 15.5369 16.1343 15.2752 16.4951 15.128C18.5226 14.3025 20.2428 12.9783 21.583 11.2166C22.8068 9.60382 23.6354 7.57261 23.8931 5.55095C23.9828 4.84395 23.9847 4.80573 23.9924 2.34459L24 0H20.0003H15.9987V2.05796Z" fill="#7E38FF"/>
<path d="M15.9987 20.0064V24H19.9984H23.9981V20.0064V16.0127H19.9984H15.9987V20.0064Z" fill="#7E38FF"/>
</svg>
